<svg xmlns="http://www.w3.org/2000/svg" xmlns:xlink="http://www.w3.org/1999/xlink" width="66" height="66" viewBox="0 0 66 66">
  <defs>
    <filter id="Rectangle" x="0" y="0" width="66" height="66" filterUnits="userSpaceOnUse">
      <feOffset dy="3" input="SourceAlpha"/>
      <feGaussianBlur stdDeviation="3" result="blur"/>
      <feFlood flood-opacity="0.122"/>
      <feComposite operator="in" in2="blur"/>
      <feComposite in="SourceGraphic"/>
    </filter>
  </defs>
  <g id="google" transform="translate(9 6)">
    <g transform="matrix(1, 0, 0, 1, -9, -6)" filter="url(#Rectangle)">
      <rect id="Rectangle-2" data-name="Rectangle" width="48" height="48" rx="10" transform="translate(9 6)" fill="#fff"/>
    </g>
    <g id="Google__G__Logo" transform="translate(15.273 15.74)">
      <path id="Path_66" data-name="Path 66" d="M-6.523,50.865a9.959,9.959,0,0,0-.136-1.626h-8.095V52.47h4.635a3.991,3.991,0,0,1-1.719,2.565v2.149h2.765A8.4,8.4,0,0,0-6.523,50.865Z" transform="translate(23.35 -42.076)" fill="#4285f4"/>
      <path id="Path_67" data-name="Path 67" d="M-17.792,60.485A8.188,8.188,0,0,0-12.111,58.4l-2.765-2.149a5.186,5.186,0,0,1-2.916.831,5.134,5.134,0,0,1-4.821-3.553h-2.851v2.214A8.583,8.583,0,0,0-17.792,60.485Z" transform="translate(26.388 -43.292)" fill="#34a853"/>
      <path id="Path_68" data-name="Path 68" d="M-22.979,51.353a4.988,4.988,0,0,1-.272-1.64,5.182,5.182,0,0,1,.272-1.64V45.859H-25.83a8.5,8.5,0,0,0-.924,3.854,8.5,8.5,0,0,0,.924,3.854Z" transform="translate(26.754 -41.117)" fill="#fbbc05"/>
      <path id="Path_69" data-name="Path 69" d="M-17.792,42.642a4.664,4.664,0,0,1,3.3,1.289l2.45-2.45a8.219,8.219,0,0,0-5.745-2.242,8.583,8.583,0,0,0-7.672,4.742l2.851,2.214A5.134,5.134,0,0,1-17.792,42.642Z" transform="translate(26.388 -39.239)" fill="#ea4335"/>
    </g>
  </g>
</svg>
