<svg xmlns="http://www.w3.org/2000/svg" width="207.764" height="129.622" viewBox="0 0 207.764 129.622">
  <g id="Group_1351" data-name="Group 1351" transform="translate(-72 -333.469)">
    <g id="Group_484" data-name="Group 484" transform="translate(114.222 364.96)">
      <rect id="Rectangle_776" data-name="Rectangle 776" width="20.352" height="15.603" rx="7.801" transform="translate(42.06 16.281)" fill="#d3dbe4"/>
      <rect id="Rectangle_781" data-name="Rectangle 781" width="20.691" height="15.603" rx="7.801" transform="translate(62.751 80.388)" fill="#d3dbe4"/>
      <rect id="Rectangle_795" data-name="Rectangle 795" width="20.352" height="15.603" rx="7.801" transform="translate(104.81 80.388)" fill="#d3dbe4"/>
      <rect id="Rectangle_800" data-name="Rectangle 800" width="20.352" height="15.603" rx="7.801" transform="translate(21.03 80.388)" fill="#d3dbe4"/>
      <rect id="Rectangle_782" data-name="Rectangle 782" width="20.691" height="15.603" rx="7.801" transform="translate(62.751 64.446)" fill="#d3dbe4"/>
      <rect id="Rectangle_794" data-name="Rectangle 794" width="20.352" height="15.603" rx="7.801" transform="translate(104.81 64.446)" fill="#d3dbe4"/>
      <rect id="Rectangle_778" data-name="Rectangle 778" width="20.352" height="15.603" rx="7.801" transform="translate(42.06 48.504)" fill="#d3dbe4"/>
      <rect id="Rectangle_788" data-name="Rectangle 788" width="20.352" height="15.603" rx="7.801" transform="translate(83.78 48.504)" fill="#d3dbe4"/>
      <rect id="Rectangle_783" data-name="Rectangle 783" width="20.691" height="15.603" rx="7.801" transform="translate(62.751 48.504)" fill="#d3dbe4"/>
      <rect id="Rectangle_798" data-name="Rectangle 798" width="20.352" height="15.603" rx="7.801" transform="translate(21.03 48.504)" fill="#d3dbe4"/>
      <rect id="Rectangle_779" data-name="Rectangle 779" width="20.352" height="15.603" rx="7.801" transform="translate(42.06 64.446)" fill="#d3dbe4"/>
      <rect id="Rectangle_812" data-name="Rectangle 812" width="20.352" height="15.603" rx="7.801" transform="translate(0.075 64.446)" fill="#1b263b"/>
      <rect id="Rectangle_789" data-name="Rectangle 789" width="20.352" height="15.603" rx="7.801" transform="translate(83.78 64.446)" fill="#d3dbe4"/>
      <rect id="Rectangle_784" data-name="Rectangle 784" width="20.691" height="15.603" rx="7.801" transform="translate(62.751 32.224)" fill="#d3dbe4"/>
      <rect id="Rectangle_792" data-name="Rectangle 792" width="20.352" height="15.603" rx="7.801" transform="translate(104.81 32.224)" fill="#d3dbe4"/>
      <rect id="Rectangle_797" data-name="Rectangle 797" width="20.352" height="15.603" rx="7.801" transform="translate(21.03 32.224)" fill="#d3dbe4"/>
      <rect id="Rectangle_813" data-name="Rectangle 813" width="20.352" height="15.603" rx="7.801" transform="translate(0 32.224)" fill="#d3dbe4"/>
      <rect id="Rectangle_814" data-name="Rectangle 814" width="20.352" height="15.603" rx="7.801" transform="translate(0 16.281)" fill="#d3dbe4"/>
      <rect id="Rectangle_810" data-name="Rectangle 810" width="20.352" height="15.603" rx="7.801" transform="translate(21.03 0)" fill="#d3dbe4"/>
      <rect id="Rectangle_780" data-name="Rectangle 780" width="20.352" height="15.603" rx="7.801" transform="translate(42.06 80.388)" fill="#d3dbe4"/>
      <rect id="Rectangle_805" data-name="Rectangle 805" width="20.352" height="15.603" rx="7.801" transform="translate(125.84 80.388)" fill="#d3dbe4"/>
      <rect id="Rectangle_790" data-name="Rectangle 790" width="20.352" height="15.603" rx="7.801" transform="translate(83.78 80.388)" fill="#d3dbe4"/>
    </g>
    <g id="Group_483" data-name="Group 483" transform="translate(87.346 345.135)">
      <path id="Path_2815" data-name="Path 2815" d="M545.226,293.449h-25.2a2.248,2.248,0,0,1-2.245-2.246V269.5a2.248,2.248,0,0,1,2.245-2.246h25.2a2.248,2.248,0,0,1,2.246,2.246V291.2A2.248,2.248,0,0,1,545.226,293.449Zm-25.2-25.7a1.749,1.749,0,0,0-1.747,1.747V291.2a1.749,1.749,0,0,0,1.747,1.747h25.2a1.749,1.749,0,0,0,1.747-1.747V269.5a1.749,1.749,0,0,0-1.747-1.747Z" transform="translate(-517.78 -261.511)" fill="#66728a"/>
      <path id="Path_2816" data-name="Path 2816" d="M553,300.212H535.168a2.123,2.123,0,0,1-2.121-2.121v-15.22a2.123,2.123,0,0,1,2.121-2.121H553a2.123,2.123,0,0,1,2.121,2.121v15.22A2.123,2.123,0,0,1,553,300.212Z" transform="translate(-529.238 -271.643)" fill="#eef3f8"/>
      <circle id="Ellipse_23" data-name="Ellipse 23" cx="1.248" cy="1.248" r="1.248" transform="translate(13.723 0)" fill="#f2f2f2"/>
      <path id="Path_2817" data-name="Path 2817" d="M424.272,57.9l-2.622-4.382L419.042,57.9l-.429-.255,3.035-5.1,3.052,5.1Z" transform="translate(-406.678 -51.788)" fill="#f2f2f2"/>
      <path id="Path_2818" data-name="Path 2818" d="M574.645,309.373a5.247,5.247,0,0,0-.124-1.123h-3.744a1,1,0,0,0-1,1v5.346A5.236,5.236,0,0,0,574.645,309.373Z" transform="translate(-556.805 -292.281)" fill="#fff"/>
      <path id="Path_2819" data-name="Path 2819" d="M551.763,301.727a5.489,5.489,0,1,1,5.36-6.665l.066.3h-4.054a.749.749,0,0,0-.749.749v5.578l-.275.019C552,301.719,551.88,301.727,551.763,301.727Zm0-10.479a4.99,4.99,0,1,0,0,9.98c.042,0,.083,0,.125,0v-5.112a1.249,1.249,0,0,1,1.248-1.248h3.424A5.019,5.019,0,0,0,551.763,291.247Z" transform="translate(-539.163 -279.146)" fill="#f7941d"/>
      <path id="Path_2820" data-name="Path 2820" d="M576.016,315.733h-5.988a1.249,1.249,0,0,1-1.248-1.248v-.875l.232-.016a4.976,4.976,0,0,0,4.516-6.041l-.066-.3h2.554a1.249,1.249,0,0,1,1.248,1.248v5.988A1.249,1.249,0,0,1,576.016,315.733Zm-6.737-1.663v.415a.749.749,0,0,0,.749.749h5.988a.749.749,0,0,0,.749-.749V308.5a.749.749,0,0,0-.749-.749h-1.943a5.437,5.437,0,0,1,.072.873A5.5,5.5,0,0,1,569.279,314.071Z" transform="translate(-556.055 -291.531)" fill="#f7941d"/>
    </g>
    <g id="Group_481" data-name="Group 481" transform="translate(191.332 333.469)">
      <path id="Path_2728" data-name="Path 2728" d="M795.176,338.632h-2.994a1.124,1.124,0,0,1-1.123-1.123V325.283a1.124,1.124,0,0,1,1.123-1.123h2.994a1.124,1.124,0,0,1,1.123,1.123v12.226a1.124,1.124,0,0,1-1.123,1.123Z" transform="translate(-753.493 -303.95)" fill="#f2f2f2"/>
      <path id="Path_2720" data-name="Path 2720" d="M687.944,335.377a30.452,30.452,0,0,1,2.52-9.61q.569-1.271,1.252-2.485a.186.186,0,0,0-.32-.187,30.869,30.869,0,0,0-3.435,9.477q-.258,1.393-.388,2.806C687.552,335.615,687.923,335.613,687.944,335.377Z" transform="translate(-675.827 -303.085)" fill="#d3dbe4"/>
      <circle id="Ellipse_2" data-name="Ellipse 2" cx="2.349" cy="2.349" r="2.349" transform="translate(14.439 16.094)" fill="#ea860e"/>
      <path id="Path_2721" data-name="Path 2721" d="M689.3,348.7a19.754,19.754,0,0,1,1.635-6.235q.369-.824.812-1.612a.12.12,0,0,0-.208-.121,20.029,20.029,0,0,0-2.229,6.148q-.167.9-.251,1.82C689.046,348.85,689.286,348.849,689.3,348.7Z" transform="translate(-676.943 -316.341)" fill="#d3dbe4"/>
      <circle id="Ellipse_3" data-name="Ellipse 3" cx="1.524" cy="1.524" r="1.524" transform="translate(13.863 21.846)" fill="#f7941d"/>
      <path id="Path_2722" data-name="Path 2722" d="M679.377,348.817a19.753,19.753,0,0,1-2.546-5.922q-.216-.877-.351-1.771a.12.12,0,0,0-.238.032,20.025,20.025,0,0,0,2.024,6.218q.424.816.921,1.59C679.27,349.1,679.46,348.947,679.377,348.817Z" transform="translate(-667.323 -316.606)" fill="#d3dbe4"/>
      <circle id="Ellipse_4" data-name="Ellipse 4" cx="1.524" cy="1.524" r="1.524" transform="translate(7.392 21.739)" fill="#f7941d"/>
      <path id="Path_2723" data-name="Path 2723" d="M670.059,365.277v-2.994a1.124,1.124,0,0,1,1.123-1.123h6.986a1.124,1.124,0,0,1,1.123,1.123v2.994a1.124,1.124,0,0,1-1.123,1.123h-6.986a1.124,1.124,0,0,1-1.123-1.123Z" transform="translate(-662.684 -331.718)" fill="#f2f2f2"/>
      <path id="Path_2724" data-name="Path 2724" d="M689.176,257.632h-2.994a1.124,1.124,0,0,1-1.123-1.123V244.283a1.124,1.124,0,0,1,1.123-1.123h2.994a1.124,1.124,0,0,1,1.123,1.123v12.226a1.124,1.124,0,0,1-1.123,1.123Z" transform="translate(-673.941 -243.16)" fill="#f2f2f2"/>
      <rect id="Rectangle_738" data-name="Rectangle 738" width="4.99" height="0.998" transform="translate(11.243 2.37)" fill="#d3dbe4"/>
      <rect id="Rectangle_739" data-name="Rectangle 739" width="4.99" height="0.998" transform="translate(11.243 10.105)" fill="#d3dbe4"/>
      <path id="Path_2725" data-name="Path 2725" d="M719.176,257.632h-2.994a1.124,1.124,0,0,1-1.123-1.123V244.283a1.124,1.124,0,0,1,1.123-1.123h2.994a1.124,1.124,0,0,1,1.123,1.123v12.226A1.124,1.124,0,0,1,719.176,257.632Z" transform="translate(-696.456 -243.16)" fill="#f2f2f2"/>
      <rect id="Rectangle_740" data-name="Rectangle 740" width="4.99" height="0.998" transform="translate(18.728 2.37)" fill="#d3dbe4"/>
      <rect id="Rectangle_741" data-name="Rectangle 741" width="4.99" height="0.998" transform="translate(18.728 10.105)" fill="#d3dbe4"/>
      <path id="Path_2726" data-name="Path 2726" d="M749.176,257.632h-2.994a1.124,1.124,0,0,1-1.123-1.123V244.283a1.124,1.124,0,0,1,1.123-1.123h2.994a1.124,1.124,0,0,1,1.123,1.123v12.226a1.124,1.124,0,0,1-1.123,1.123Z" transform="translate(-718.97 -243.16)" fill="#f2f2f2"/>
      <rect id="Rectangle_742" data-name="Rectangle 742" width="4.99" height="0.998" transform="translate(26.213 2.37)" fill="#d3dbe4"/>
      <rect id="Rectangle_743" data-name="Rectangle 743" width="4.99" height="0.998" transform="translate(26.213 10.105)" fill="#d3dbe4"/>
      <path id="Path_2727" data-name="Path 2727" d="M765.176,338.632h-2.994a1.124,1.124,0,0,1-1.123-1.123V325.283a1.124,1.124,0,0,1,1.123-1.123h2.994a1.124,1.124,0,0,1,1.123,1.123v12.226A1.124,1.124,0,0,1,765.176,338.632Z" transform="translate(-730.978 -303.95)" fill="#f2f2f2"/>
      <rect id="Rectangle_744" data-name="Rectangle 744" width="4.99" height="0.998" transform="translate(30.205 22.581)" fill="#d3dbe4"/>
      <rect id="Rectangle_745" data-name="Rectangle 745" width="4.99" height="0.998" transform="translate(30.205 30.316)" fill="#d3dbe4"/>
      <rect id="Rectangle_746" data-name="Rectangle 746" width="4.99" height="0.998" transform="translate(37.691 22.581)" fill="#d3dbe4"/>
      <rect id="Rectangle_747" data-name="Rectangle 747" width="4.99" height="0.998" transform="translate(37.691 30.316)" fill="#d3dbe4"/>
      <path id="Path_2729" data-name="Path 2729" d="M825.176,338.632h-2.994a1.124,1.124,0,0,1-1.123-1.123V325.283a1.124,1.124,0,0,1,1.123-1.123h2.994a1.124,1.124,0,0,1,1.123,1.123v12.226a1.124,1.124,0,0,1-1.123,1.123Z" transform="translate(-776.008 -303.95)" fill="#f2f2f2"/>
      <rect id="Rectangle_748" data-name="Rectangle 748" width="4.99" height="0.998" transform="translate(45.176 22.581)" fill="#d3dbe4"/>
      <rect id="Rectangle_749" data-name="Rectangle 749" width="4.99" height="0.998" transform="translate(45.176 30.316)" fill="#d3dbe4"/>
      <path id="Path_2730" data-name="Path 2730" d="M686.176,419.632h-2.994a1.124,1.124,0,0,1-1.123-1.123V406.283a1.124,1.124,0,0,1,1.123-1.123h2.994a1.124,1.124,0,0,1,1.123,1.123v12.226A1.124,1.124,0,0,1,686.176,419.632Z" transform="translate(-671.69 -364.739)" fill="#f2f2f2"/>
      <rect id="Rectangle_750" data-name="Rectangle 750" width="4.99" height="0.998" transform="translate(10.494 42.791)" fill="#d3dbe4"/>
      <rect id="Rectangle_751" data-name="Rectangle 751" width="4.99" height="0.998" transform="translate(10.494 50.526)" fill="#d3dbe4"/>
      <path id="Path_2731" data-name="Path 2731" d="M716.176,419.632h-2.994a1.124,1.124,0,0,1-1.123-1.123V406.283a1.124,1.124,0,0,1,1.123-1.123h2.994a1.124,1.124,0,0,1,1.123,1.123v12.226A1.124,1.124,0,0,1,716.176,419.632Z" transform="translate(-694.204 -364.739)" fill="#f2f2f2"/>
      <rect id="Rectangle_752" data-name="Rectangle 752" width="4.99" height="0.998" transform="translate(17.979 42.791)" fill="#d3dbe4"/>
      <rect id="Rectangle_753" data-name="Rectangle 753" width="4.99" height="0.998" transform="translate(17.979 50.526)" fill="#d3dbe4"/>
      <path id="Path_2732" data-name="Path 2732" d="M746.176,419.632h-2.994a1.124,1.124,0,0,1-1.123-1.123V406.283a1.124,1.124,0,0,1,1.123-1.123h2.994a1.124,1.124,0,0,1,1.123,1.123v12.226A1.124,1.124,0,0,1,746.176,419.632Z" transform="translate(-716.719 -364.739)" fill="#f2f2f2"/>
      <rect id="Rectangle_754" data-name="Rectangle 754" width="4.99" height="0.998" transform="translate(25.465 42.791)" fill="#d3dbe4"/>
      <rect id="Rectangle_755" data-name="Rectangle 755" width="4.99" height="0.998" transform="translate(25.465 50.526)" fill="#d3dbe4"/>
      <path id="Path_2733" data-name="Path 2733" d="M779.176,257.632h-2.994a1.124,1.124,0,0,1-1.123-1.123V244.283a1.124,1.124,0,0,1,1.123-1.123h2.994a1.124,1.124,0,0,1,1.123,1.123v12.226A1.124,1.124,0,0,1,779.176,257.632Z" transform="translate(-741.485 -243.16)" fill="#f2f2f2"/>
      <rect id="Rectangle_756" data-name="Rectangle 756" width="4.99" height="0.998" transform="translate(33.699 2.37)" fill="#d3dbe4"/>
      <rect id="Rectangle_757" data-name="Rectangle 757" width="4.99" height="0.998" transform="translate(33.699 10.105)" fill="#d3dbe4"/>
      <path id="Path_2734" data-name="Path 2734" d="M809.176,257.632h-2.994a1.124,1.124,0,0,1-1.123-1.123V244.283a1.124,1.124,0,0,1,1.123-1.123h2.994a1.124,1.124,0,0,1,1.123,1.123v12.226A1.124,1.124,0,0,1,809.176,257.632Z" transform="translate(-764 -243.16)" fill="#f2f2f2"/>
      <rect id="Rectangle_758" data-name="Rectangle 758" width="4.99" height="0.998" transform="translate(41.184 2.37)" fill="#d3dbe4"/>
      <rect id="Rectangle_759" data-name="Rectangle 759" width="4.99" height="0.998" transform="translate(41.184 10.105)" fill="#d3dbe4"/>
      <path id="Path_2735" data-name="Path 2735" d="M839.176,257.632h-2.994a1.124,1.124,0,0,1-1.123-1.123V244.283a1.124,1.124,0,0,1,1.123-1.123h2.994a1.124,1.124,0,0,1,1.123,1.123v12.226A1.124,1.124,0,0,1,839.176,257.632Z" transform="translate(-786.514 -243.16)" fill="#f2f2f2"/>
      <rect id="Rectangle_760" data-name="Rectangle 760" width="4.99" height="0.998" transform="translate(48.669 2.37)" fill="#d3dbe4"/>
      <rect id="Rectangle_761" data-name="Rectangle 761" width="4.99" height="0.998" transform="translate(48.669 10.105)" fill="#d3dbe4"/>
      <path id="Path_2736" data-name="Path 2736" d="M869.176,257.632h-2.994a1.124,1.124,0,0,1-1.123-1.123V244.283a1.124,1.124,0,0,1,1.123-1.123h2.994a1.124,1.124,0,0,1,1.123,1.123v12.226A1.124,1.124,0,0,1,869.176,257.632Z" transform="translate(-809.029 -243.16)" fill="#f2f2f2"/>
      <rect id="Rectangle_762" data-name="Rectangle 762" width="4.99" height="0.998" transform="translate(56.155 2.37)" fill="#d3dbe4"/>
      <rect id="Rectangle_763" data-name="Rectangle 763" width="4.99" height="0.998" transform="translate(56.155 10.105)" fill="#d3dbe4"/>
      <path id="Path_2737" data-name="Path 2737" d="M711.86,301.159H640.75a.249.249,0,1,1,0-.5H711.86a.249.249,0,1,1,0,.5Z" transform="translate(-640.5 -286.313)" fill="#66728a"/>
      <path id="Path_2738" data-name="Path 2738" d="M711.86,382.159H640.75a.249.249,0,1,1,0-.5H711.86a.249.249,0,1,1,0,.5Z" transform="translate(-640.5 -347.103)" fill="#66728a"/>
      <path id="Path_2739" data-name="Path 2739" d="M711.86,463.159H640.75a.249.249,0,1,1,0-.5H711.86a.249.249,0,1,1,0,.5Z" transform="translate(-640.5 -407.892)" fill="#66728a"/>
      <path id="Path_2740" data-name="Path 2740" d="M852.944,416.377a30.451,30.451,0,0,1,2.52-9.61q.569-1.271,1.252-2.485a.186.186,0,0,0-.32-.187,30.87,30.87,0,0,0-3.435,9.477q-.258,1.393-.388,2.806C852.552,416.615,852.922,416.613,852.944,416.377Z" transform="translate(-799.658 -363.874)" fill="#d3dbe4"/>
      <circle id="Ellipse_5" data-name="Ellipse 5" cx="2.349" cy="2.349" r="2.349" transform="translate(55.608 36.304)" fill="#ea860e"/>
      <path id="Path_2741" data-name="Path 2741" d="M854.3,429.7a19.753,19.753,0,0,1,1.635-6.235q.369-.824.812-1.612a.12.12,0,0,0-.208-.121,20.027,20.027,0,0,0-2.229,6.148q-.167.9-.251,1.82C854.045,429.85,854.286,429.849,854.3,429.7Z" transform="translate(-800.774 -377.131)" fill="#d3dbe4"/>
      <circle id="Ellipse_6" data-name="Ellipse 6" cx="1.524" cy="1.524" r="1.524" transform="translate(55.033 42.056)" fill="#ea860e"/>
      <path id="Path_2742" data-name="Path 2742" d="M844.377,429.817a19.755,19.755,0,0,1-2.546-5.922q-.216-.877-.351-1.771a.12.12,0,0,0-.239.032,20.027,20.027,0,0,0,2.024,6.219q.424.816.921,1.59C844.27,430.1,844.46,429.947,844.377,429.817Z" transform="translate(-791.154 -377.396)" fill="#d3dbe4"/>
      <circle id="Ellipse_7" data-name="Ellipse 7" cx="1.524" cy="1.524" r="1.524" transform="translate(48.562 41.949)" fill="#f7941d"/>
      <path id="Path_2743" data-name="Path 2743" d="M835.059,446.277v-2.994a1.124,1.124,0,0,1,1.123-1.123h6.986a1.124,1.124,0,0,1,1.123,1.123v2.994a1.124,1.124,0,0,1-1.123,1.123h-6.986A1.124,1.124,0,0,1,835.059,446.277Z" transform="translate(-786.515 -392.507)" fill="#f2f2f2"/>
    </g>
    <g id="Group_480" data-name="Group 480" transform="translate(72 408.964)">
      <circle id="Ellipse_18" data-name="Ellipse 18" cx="1.729" cy="1.729" r="1.729" transform="translate(51.803 50.279)" fill="#66728a"/>
      <circle id="Ellipse_19" data-name="Ellipse 19" cx="1.729" cy="1.729" r="1.729" transform="translate(152.031 50.279)" fill="#66728a"/>
      <path id="Path_2789" data-name="Path 2789" d="M411.4,516.265H384.315a4.759,4.759,0,0,1-4.754-4.754V493.07a4.76,4.76,0,0,1,4.754-4.754H411.4a4.76,4.76,0,0,1,4.754,4.754v18.44a4.76,4.76,0,0,1-4.754,4.754Z" transform="translate(-327.137 -488.316)" fill="#1b263b"/>
      <path id="Path_2790" data-name="Path 2790" d="M557.48,516.843H530.4a4.76,4.76,0,0,1-4.754-4.754v-18.44a4.76,4.76,0,0,1,4.754-4.754H557.48a4.76,4.76,0,0,1,4.754,4.754v18.44A4.76,4.76,0,0,1,557.48,516.843Z" transform="translate(-440.288 -488.75)" fill="#1b263b"/>
      <path id="Path_2791" data-name="Path 2791" d="M703.56,517.42H676.475a4.759,4.759,0,0,1-4.754-4.754v-18.44a4.76,4.76,0,0,1,4.754-4.754H703.56a4.759,4.759,0,0,1,4.754,4.754v18.44A4.76,4.76,0,0,1,703.56,517.42Z" transform="translate(-553.438 -489.183)" fill="#1b263b"/>
      <rect id="Rectangle_770" data-name="Rectangle 770" width="119.287" height="24.923" transform="translate(44.622 26.94)" fill="#1b263b"/>
      <path id="Path_2792" data-name="Path 2792" d="M350.239,602.29h-5.186c-2.622,0-4.754-2.422-4.754-5.4V570.883h9.941Z" transform="translate(-296.15 -550.282)" fill="#1b263b"/>
      <path id="Path_2793" data-name="Path 2793" d="M822.988,590.156H817.8v-35.44h9.941v29.349C827.743,587.424,825.61,590.156,822.988,590.156Z" transform="translate(-664.597 -538.148)" fill="#1b263b"/>
      <path id="Path_2794" data-name="Path 2794" d="M416.731,577.891H380.138v-7.78q18.3-10.5,36.593,0Z" transform="translate(-327.584 -545.765)" fill="#66728a"/>
      <path id="Path_2795" data-name="Path 2795" d="M562.811,578.469H526.218v-7.779q18.3-10.5,36.593,0Z" transform="translate(-440.735 -546.198)" fill="#66728a"/>
      <path id="Path_2796" data-name="Path 2796" d="M708.892,579.046H672.3v-7.78q18.3-10.5,36.593,0Z" transform="translate(-553.886 -546.631)" fill="#66728a"/>
      <circle id="Ellipse_20" data-name="Ellipse 20" cx="8.5" cy="8.5" r="8.5" transform="translate(38.883 10.229)" fill="#66728a"/>
      <circle id="Ellipse_21" data-name="Ellipse 21" cx="8.5" cy="8.5" r="8.5" transform="translate(152.464 9.941)" fill="#66728a"/>
      <path id="Path_2814" data-name="Path 2814" d="M354.534,703.749H147.229a.25.25,0,0,1,0-.5H354.534a.25.25,0,0,1,0,.5Z" transform="translate(-147 -649.622)" fill="#3f3d56"/>
    </g>
    <g id="Group_479" data-name="Group 479" transform="translate(162.762 393.187)">
      <circle id="Ellipse_8" data-name="Ellipse 8" cx="6.737" cy="6.737" r="6.737" transform="translate(13.923 0)"/>
      <path id="Path_2745" data-name="Path 2745" d="M172.868,363.2l-.178-3.053L184.384,358l.263,4.507Z" transform="translate(-158.61 -313.215)" fill="#ffb8b8"/>
      <path id="Path_2746" data-name="Path 2746" d="M3.714,0h5.9V3.714H0A3.714,3.714,0,0,1,3.714,0Z" transform="translate(14.607 40.989) rotate(86.655)" fill="#2f2e41"/>
      <path id="Path_2747" data-name="Path 2747" d="M157.75,356.18l-1.942,2.363-10.039-6.367,2.867-3.488Z" transform="translate(-138.405 -306.224)" fill="#ffb8b8"/>
      <path id="Path_2748" data-name="Path 2748" d="M3.714,0h5.9V3.714H0A3.714,3.714,0,0,1,3.714,0Z" transform="matrix(0.635, -0.773, 0.773, 0.635, 12.982, 56.321)" fill="#0d1b2a"/>
      <path id="Path_2749" data-name="Path 2749" d="M439.829,575.451l-1.327,6.257a1,1,0,0,0,.96,1.205l13.049.21a1,1,0,0,0,1-1.171l-1.141-6.468a1,1,0,0,0-.983-.825h-10.58A1,1,0,0,0,439.829,575.451Z" transform="translate(-426.074 -536.485)" fill="#2f2e41"/>
      <path id="Path_2750" data-name="Path 2750" d="M404.678,571.667s-12.725-7.984-15.22-3.743a5.322,5.322,0,0,0,.312,5.708,8.64,8.64,0,0,0,3.594,3.216L403.68,581.9l3.743-3.992-2.5-2.246Z" transform="translate(-388.759 -530.498)" fill="#0d1b2a"/>
      <path id="Path_2751" data-name="Path 2751" d="M468.052,577.9s16.468-4.741,13.224,4.242-15.47,5.489-15.47,5.489l-1.248-3.743,4.242-2.994Z" transform="translate(-445.646 -537.978)" fill="#0d1b2a"/>
      <circle id="Ellipse_9" data-name="Ellipse 9" cx="6.128" cy="6.128" r="6.128" transform="translate(14.616 2.147)" fill="#ffb8b8"/>
      <path id="Path_2752" data-name="Path 2752" d="M439.553,511.494A32.934,32.934,0,0,1,432,510.5l-.073-.02-3.42-15.73a5.8,5.8,0,0,1,3.726-6.723,20.076,20.076,0,0,1,12.8-.256h0a5.856,5.856,0,0,1,3.9,6.928l-3.82,15.768-.054.026A13.172,13.172,0,0,1,439.553,511.494Z" transform="translate(-418.488 -470.582)" fill="#f7941d"/>
      <path id="Path_2753" data-name="Path 2753" d="M454.308,568.959a2.509,2.509,0,0,1,3.612-1.325l6.733-5.845.609,4.593-6.488,4.846a2.523,2.523,0,0,1-4.467-2.269Z" transform="translate(-437.836 -526.826)" fill="#ffb8b8"/>
      <path id="Path_2754" data-name="Path 2754" d="M474.675,517.376a1.132,1.132,0,0,1-.323-.048,1.111,1.111,0,0,1-.739-.7l-.813-2.3a1.116,1.116,0,0,1,.325-1.223l9.174-5.508-3.616-16.134.092-.022a4.574,4.574,0,0,1,5.261,3.2c1.063,2.836,5,9,4.72,13.168a3.714,3.714,0,0,1-3.074,3.425l-10.327,5.917A1.112,1.112,0,0,1,474.675,517.376Z" transform="translate(-451.782 -473.967)" fill="#ea860e"/>
      <path id="Path_2755" data-name="Path 2755" d="M451.687,566.766a2.509,2.509,0,0,0-3.612-1.325l-6.733-5.845-.609,4.593,6.488,4.846a2.523,2.523,0,0,0,4.467-2.269Z" transform="translate(-427.765 -525.18)" fill="#ffb8b8"/>
      <path id="Path_2756" data-name="Path 2756" d="M416.966,517.376a1.111,1.111,0,0,1-.68-.233l-11.075-5.418a3.714,3.714,0,0,1-3.074-3.425c-.278-4.167,4.406-10.832,5.469-13.667a4.574,4.574,0,0,1,5.261-3.2l.092.022-4.365,16.633,9.923,5.009a1.116,1.116,0,0,1,.325,1.223l-.813,2.3a1.111,1.111,0,0,1-.739.7A1.13,1.13,0,0,1,416.966,517.376Z" transform="translate(-398.79 -473.967)" fill="#ea860e"/>
      <path id="Path_2757" data-name="Path 2757" d="M442.512,558.379H420.306a1.749,1.749,0,0,1-1.747-1.747V544.406a1.749,1.749,0,0,1,1.747-1.747h22.207a1.749,1.749,0,0,1,1.747,1.747v12.226A1.749,1.749,0,0,1,442.512,558.379Z" transform="translate(-411.124 -512.469)" fill="#2c3952"/>
      <circle id="Ellipse_10" data-name="Ellipse 10" cx="1.497" cy="1.497" r="1.497" transform="translate(18.788 36.553)" fill="#fff"/>
      <path id="Path_2758" data-name="Path 2758" d="M446.765,433.535a2.082,2.082,0,0,1,1.117-2.465,3.911,3.911,0,0,1,2.9-.067c.795.247,1.539.63,2.315.933a5.181,5.181,0,0,0,2.433.433,2.451,2.451,0,0,0,1.988-1.317,2.416,2.416,0,0,0-.428-2.422,4.691,4.691,0,0,0-2.149-1.381,6.978,6.978,0,0,0-5.622.273,4.773,4.773,0,0,0-2.493,4.823" transform="translate(-432.211 -425.509)"/>
    </g>
  </g>
</svg>
