<svg xmlns="http://www.w3.org/2000/svg" width="28.544" height="28.572" viewBox="0 0 28.544 28.572">
  <path id="Icon_feather-phone-call" data-name="Icon feather-phone-call" d="M16.18,5.523A5.029,5.029,0,0,1,20.152,9.5m-3.973-8a9.051,9.051,0,0,1,8,7.985M23.17,17.511v3.017a2.011,2.011,0,0,1-2.192,2.011A19.9,19.9,0,0,1,12.3,19.452a19.611,19.611,0,0,1-6.034-6.034A19.9,19.9,0,0,1,3.176,4.7a2.011,2.011,0,0,1,2-2.192H8.194a2.011,2.011,0,0,1,2.011,1.73,12.913,12.913,0,0,0,.7,2.826,2.011,2.011,0,0,1-.453,2.122L9.18,10.461A16.091,16.091,0,0,0,15.214,16.5l1.277-1.277a2.011,2.011,0,0,1,2.122-.453,12.913,12.913,0,0,0,2.826.7A2.011,2.011,0,0,1,23.17,17.511Z" transform="translate(4.656 -1.18) rotate(17)" fill="none" stroke="#fff" stroke-linecap="round" stroke-linejoin="round" stroke-width="1.75"/>
</svg>
