<svg id="Logo" xmlns="http://www.w3.org/2000/svg" width="146.51" height="27.76" viewBox="0 0 146.51 27.76">
  <g id="Group_3" data-name="Group 3">
    <path id="Path_1" data-name="Path 1" d="M319.714,48.21h4.019V61.774h-2.6V52.6q0-.4.009-1.109t.009-1.1l-2.533,11.383H315.9L313.385,50.39q0,.387.009,1.1T313.4,52.6v9.175h-2.6V48.21h4.064L317.3,58.875l2.415-10.665Z" transform="translate(-265.688 -41.109)" fill="#f7941d"/>
    <path id="Path_2" data-name="Path 2" d="M436.783,48.21h3.164l-4.471,8.478v5.086h-2.793V56.688L428.06,48.21h3.292l2.775,5.908,2.658-5.908Z" transform="translate(-365.928 -41.109)" fill="#f7941d"/>
    <path id="Path_3" data-name="Path 3" d="M542.018,48.2v2.4h-4V61.767h-2.812V50.6H531.19V48.2h10.828Z" transform="translate(-454.089 -41.1)" fill="#f7941d"/>
    <path id="Path_4" data-name="Path 4" d="M636.114,48.21h3.164l-4.471,8.478v5.086h-2.793V56.688L627.39,48.21h3.292l2.775,5.908,2.658-5.908Z" transform="translate(-536.326 -41.109)" fill="#f7941d"/>
    <path id="Path_5" data-name="Path 5" d="M738.2,48.21h2.793V59.335h6.674v2.439H738.2V48.21Z" transform="translate(-631.052 -41.109)" fill="#f7941d"/>
    <path id="Path_6" data-name="Path 6" d="M844.643,50.611H837.57v2.881h6.492v2.355H837.57v3.488h7.4v2.439H834.84V48.21h9.8v2.4Z" transform="translate(-713.664 -41.109)" fill="#f7941d"/>
    <path id="Path_7" data-name="Path 7" d="M935.7,55.293a2.766,2.766,0,0,0,.509,1.389,2.939,2.939,0,0,0,2.379.838,5.044,5.044,0,0,0,1.639-.221,1.574,1.574,0,0,0,1.195-1.573,1.163,1.163,0,0,0-.585-1.04,6.309,6.309,0,0,0-1.856-.635l-1.447-.323a8.959,8.959,0,0,1-2.932-1.04,3.324,3.324,0,0,1-1.351-2.936,3.927,3.927,0,0,1,1.322-3.028,5.577,5.577,0,0,1,3.883-1.2,5.891,5.891,0,0,1,3.649,1.137,4.06,4.06,0,0,1,1.584,3.3H941a1.944,1.944,0,0,0-1.078-1.74,3.653,3.653,0,0,0-1.663-.34,3.131,3.131,0,0,0-1.766.442,1.4,1.4,0,0,0-.66,1.233,1.164,1.164,0,0,0,.65,1.086,8.045,8.045,0,0,0,1.777.561l2.346.561a5.942,5.942,0,0,1,2.312.985,3.339,3.339,0,0,1,1.195,2.771A3.956,3.956,0,0,1,942.7,58.6a5.915,5.915,0,0,1-4,1.228,6.543,6.543,0,0,1-4.153-1.211,4.026,4.026,0,0,1-1.512-3.327H935.7Z" transform="translate(-797.602 -38.815)" fill="#f7941d"/>
    <path id="Path_8" data-name="Path 8" d="M0,81.334V62.83L8,73.219Z" transform="translate(0 -53.576)" fill="#f7941d"/>
    <path id="Path_9" data-name="Path 9" d="M9.118,72.083,0,62.83H0l9.118,9.251Z" transform="translate(0 -53.576)" fill="#0077a9"/>
    <path id="Path_10" data-name="Path 10" d="M188.47,72.081l9.118-9.251-9.117,9.253h0Z" transform="translate(-161.114 -53.576)" fill="#0077a9"/>
    <path id="Path_11" data-name="Path 11" d="M204.188,62.83v18.5l-8-8.116Z" transform="translate(-167.713 -53.576)" fill="#f7941d"/>
    <path id="Path_12" data-name="Path 12" d="M134.76,125.64l-9.12,9.253,9.12-9.253Z" transform="translate(-107.404 -107.134)" fill="#005e7f"/>
    <path id="Path_13" data-name="Path 13" d="M134.76,125.64l-9.12,9.253,9.12-9.253Z" transform="translate(-107.404 -107.134)" fill="#fff"/>
    <path id="Path_14" data-name="Path 14" d="M9.118,72.083,8,73.219,0,62.83Z" transform="translate(0 -53.576)" fill="#b46d30"/>
    <path id="Path_15" data-name="Path 15" d="M197.6,62.83l-8,10.389-1.119-1.136Z" transform="translate(-161.122 -53.576)" fill="#b46d30"/>
    <path id="Path_16" data-name="Path 16" d="M36.474,9.253h0l-9.118,9.251h0L18.238,27.76h0L0,9.254H0L9.12,0l9.118,9.253L26.607.759h0L27.356,0Z" fill="#f7941d"/>
  </g>
</svg>
