<svg id="Component_185_1" data-name="Component 185 – 1" xmlns="http://www.w3.org/2000/svg" width="21" height="20" viewBox="0 0 21 20">
  <g id="Group_2242" data-name="Group 2242" transform="translate(1.607 3.043)">
    <path id="Path_2653" data-name="Path 2653" d="M17.334,6H2.165a1.389,1.389,0,0,0-1.133.564,1.678,1.678,0,0,0-.3,1.319l1.58,8.633a1.471,1.471,0,0,0,1.436,1.256H15.754a1.471,1.471,0,0,0,1.436-1.256l1.58-8.633a1.678,1.678,0,0,0-.3-1.319A1.389,1.389,0,0,0,17.334,6Z" transform="translate(-0.7 -1.972)" fill="none" stroke="#f7941d" stroke-linecap="round" stroke-linejoin="round" stroke-width="2"/>
    <line id="Line_59" data-name="Line 59" x2="2.302" y2="4.028" transform="translate(12.37)" fill="none" stroke="#f7941d" stroke-linecap="round" stroke-linejoin="round" stroke-width="2"/>
    <line id="Line_60" data-name="Line 60" y1="4.028" x2="2.302" transform="translate(3.429)" fill="none" stroke="#f7941d" stroke-linecap="round" stroke-linejoin="round" stroke-width="2"/>
  </g>
  <rect id="Rectangle_1408" data-name="Rectangle 1408" width="21" height="20" fill="none"/>
</svg>
