<svg id="check_icon" xmlns="http://www.w3.org/2000/svg" width="24" height="24" viewBox="0 0 24 24">
  <g id="Path_2669" data-name="Path 2669" fill="#3b9321">
    <path d="M 12 23.5 C 8.928239822387695 23.5 6.040329933166504 22.30378913879395 3.868269920349121 20.13172912597656 C 1.696210026741028 17.95966911315918 0.5 15.0717601776123 0.5 12 C 0.5 8.928239822387695 1.696210026741028 6.040329933166504 3.868269920349121 3.868269920349121 C 6.040329933166504 1.696210026741028 8.928239822387695 0.5 12 0.5 C 15.0717601776123 0.5 17.95966911315918 1.696210026741028 20.13172912597656 3.868269920349121 C 22.30378913879395 6.040329933166504 23.5 8.928239822387695 23.5 12 C 23.5 15.0717601776123 22.30378913879395 17.95966911315918 20.13172912597656 20.13172912597656 C 17.95966911315918 22.30378913879395 15.0717601776123 23.5 12 23.5 Z" stroke="none"/>
    <path d="M 12 1 C 9.061790466308594 1 6.299449920654297 2.144199371337891 4.221820831298828 4.221820831298828 C 2.144199371337891 6.299449920654297 1 9.061790466308594 1 12 C 1 14.93819999694824 2.144199371337891 17.7005500793457 4.221820831298828 19.77816963195801 C 6.299449920654297 21.85580062866211 9.061790466308594 23 12 23 C 14.93819999694824 23 17.70054054260254 21.85580062866211 19.77816963195801 19.77816963195801 C 21.85580062866211 17.70054054260254 23 14.93819999694824 23 12 C 23 9.061790466308594 21.85580062866211 6.299449920654297 19.77816963195801 4.221820831298828 C 17.7005500793457 2.144199371337891 14.93819999694824 1 12 1 M 12 0 C 18.62741088867188 0 24 5.372579574584961 24 12 C 24 18.62741088867188 18.62741088867188 24 12 24 C 5.372579574584961 24 0 18.62741088867188 0 12 C 0 5.372579574584961 5.372579574584961 0 12 0 Z" stroke="none" fill="#3b9321"/>
  </g>
  <path id="Path_2662" data-name="Path 2662" d="M3892.48,15388l-5.654,5.654Zm-8.479,2.83,2.825,2.824Z" transform="translate(-3876.24 -15378.827)" fill="#1b263b" stroke="#fff" stroke-linecap="round" stroke-linejoin="round" stroke-width="2"/>
</svg>
