<svg xmlns="http://www.w3.org/2000/svg" width="10" height="5.748" viewBox="0 0 10 5.748">
  <path id="Path_2635" data-name="Path 2635" d="M5.748,5a.657.657,0,0,0-.057-.27.8.8,0,0,0-.17-.236L1.125.186A.643.643,0,0,0,.658,0,.649.649,0,0,0,.327.087.655.655,0,0,0,.088.323.637.637,0,0,0,0,.655a.659.659,0,0,0,.2.475L4.167,5,.2,8.87a.665.665,0,0,0-.2.476.637.637,0,0,0,.088.332A.66.66,0,0,0,.658,10a.635.635,0,0,0,.467-.191l4.4-4.3a.79.79,0,0,0,.171-.237A.647.647,0,0,0,5.748,5Z" transform="translate(10) rotate(90)" fill="#f7941d"/>
</svg>
