<svg id="Chevron-Left" xmlns="http://www.w3.org/2000/svg" width="4.544" height="7.83" viewBox="0 0 4.544 7.83">
  <path id="Path_2635" data-name="Path 2635" d="M4.544,3.915A.511.511,0,0,0,4.5,3.7a.627.627,0,0,0-.134-.185L.889.146A.511.511,0,0,0,.52,0,.523.523,0,0,0,.07.253.5.5,0,0,0,0,.513.514.514,0,0,0,.158.884l3.137,3.03L.158,6.945A.518.518,0,0,0,0,7.318a.5.5,0,0,0,.07.26.523.523,0,0,0,.45.253.5.5,0,0,0,.369-.149l3.476-3.37A.619.619,0,0,0,4.5,4.126.5.5,0,0,0,4.544,3.915Z" transform="translate(4.544 7.83) rotate(180)" fill="#0d1b2a"/>
</svg>
