<svg id="Chevron_up" xmlns="http://www.w3.org/2000/svg" width="10" height="5.748" viewBox="0 0 10 5.748">
  <path id="Path_2635" data-name="Path 2635" d="M5.748,5a.657.657,0,0,1-.057.27.8.8,0,0,1-.17.236l-4.4,4.307A.643.643,0,0,1,.658,10a.66.66,0,0,1-.57-.323A.637.637,0,0,1,0,9.345a.659.659,0,0,1,.2-.475L4.167,5,.2,1.13A.665.665,0,0,1,0,.655.637.637,0,0,1,.088.323.655.655,0,0,1,.327.087.649.649,0,0,1,.658,0a.635.635,0,0,1,.467.191l4.4,4.3a.79.79,0,0,1,.171.237A.647.647,0,0,1,5.748,5Z" transform="translate(0 5.748) rotate(-90)" fill="#f7941d"/>
</svg>
