<svg xmlns="http://www.w3.org/2000/svg" width="24.965" height="24.965" viewBox="0 0 24.965 24.965">
  <path id="Icon_ionic-ios-close-circle" data-name="Icon ionic-ios-close-circle" d="M15.857,3.375A12.482,12.482,0,1,0,28.34,15.857,12.481,12.481,0,0,0,15.857,3.375Zm3.163,17-3.163-3.163-3.163,3.163a.959.959,0,1,1-1.356-1.356L14.5,15.857l-3.163-3.163a.959.959,0,0,1,1.356-1.356L15.857,14.5l3.163-3.163a.959.959,0,0,1,1.356,1.356l-3.163,3.163,3.163,3.163a.963.963,0,0,1,0,1.356A.953.953,0,0,1,19.02,20.376Z" transform="translate(-3.375 -3.375)" fill="#0d1b2a"/>
</svg>
