<svg xmlns="http://www.w3.org/2000/svg" width="27.939" height="21.264" viewBox="0 0 27.939 21.264">
  <g id="Group_1342" data-name="Group 1342" transform="translate(17995 23815)">
    <path id="Path_8" data-name="Path 8" d="M0,77V62.83l6.126,7.958Z" transform="translate(-17995 -23870.74)" fill="#f7941d"/>
    <path id="Path_9" data-name="Path 9" d="M6.984,69.918,0,62.83H0l6.984,7.087Z" transform="translate(-17995 -23870.74)" fill="#0077a9"/>
    <path id="Path_10" data-name="Path 10" d="M188.47,69.917l6.984-7.087-6.983,7.088h0Z" transform="translate(-18162.516 -23870.74)" fill="#0077a9"/>
    <path id="Path_11" data-name="Path 11" d="M202.316,62.83V77l-6.126-6.217Z" transform="translate(-18169.377 -23870.74)" fill="#f7941d"/>
    <path id="Path_12" data-name="Path 12" d="M132.626,125.64l-6.986,7.088,6.986-7.088Z" transform="translate(-18106.672 -23926.467)" fill="#005e7f"/>
    <path id="Path_13" data-name="Path 13" d="M132.626,125.64l-6.986,7.088,6.986-7.088Z" transform="translate(-18106.672 -23926.467)" fill="#fff"/>
    <path id="Path_14" data-name="Path 14" d="M6.984,69.918l-.858.87L0,62.83Z" transform="translate(-17995 -23870.74)" fill="#b46d30"/>
    <path id="Path_15" data-name="Path 15" d="M195.463,62.83l-6.126,7.958-.857-.87Z" transform="translate(-18162.525 -23870.74)" fill="#b46d30"/>
    <path id="Path_16" data-name="Path 16" d="M27.939,7.088h0l-6.984,7.087h0L13.97,21.264h0L0,7.089H0L6.986,0,13.97,7.088,20.381.581h0L20.954,0Z" transform="translate(-17995 -23815)" fill="#f7941d"/>
  </g>
</svg>
