<svg xmlns="http://www.w3.org/2000/svg" width="30.421" height="23.153" viewBox="0 0 30.421 23.153">
  <g id="Group_1342" data-name="Group 1342" transform="translate(17995 23815)">
    <path id="Path_8" data-name="Path 8" d="M0,78.263V62.83l6.67,8.664Z" transform="translate(-17995 -23870.111)" fill="#f7941d"/>
    <path id="Path_9" data-name="Path 9" d="M7.6,70.547,0,62.83H0l7.6,7.716Z" transform="translate(-17995 -23870.111)" fill="#0077a9"/>
    <path id="Path_10" data-name="Path 10" d="M188.47,70.546l7.6-7.716-7.6,7.717h0Z" transform="translate(-18160.654 -23870.111)" fill="#0077a9"/>
    <path id="Path_11" data-name="Path 11" d="M202.86,62.83V78.263l-6.67-6.769Z" transform="translate(-18167.439 -23870.111)" fill="#f7941d"/>
    <path id="Path_12" data-name="Path 12" d="M133.246,125.64l-7.606,7.717,7.606-7.717Z" transform="translate(-18105.432 -23925.207)" fill="#005e7f"/>
    <path id="Path_13" data-name="Path 13" d="M133.246,125.64l-7.606,7.717,7.606-7.717Z" transform="translate(-18105.432 -23925.207)" fill="#fff"/>
    <path id="Path_14" data-name="Path 14" d="M7.6,70.547l-.935.947L0,62.83Z" transform="translate(-17995 -23870.111)" fill="#b46d30"/>
    <path id="Path_15" data-name="Path 15" d="M196.084,62.83l-6.67,8.664-.933-.947Z" transform="translate(-18160.664 -23870.111)" fill="#b46d30"/>
    <path id="Path_16" data-name="Path 16" d="M30.42,7.717h0l-7.6,7.716h0l-7.6,7.717h0L0,7.718H0L7.606,0l7.6,7.717L22.191.633h0L22.816,0Z" transform="translate(-17995 -23815)" fill="#f7941d"/>
  </g>
</svg>
