<svg xmlns="http://www.w3.org/2000/svg" width="26.363" height="23.916" viewBox="0 0 26.363 23.916">
  <path id="Path_2692" data-name="Path 2692" d="M26.368,15.719a3.258,3.258,0,0,1-.49.466Q19.794,19.966,13.7,23.737a.852.852,0,0,1-1.017.009q-6.1-3.8-12.221-7.573c-.044-.027-.087-.055-.13-.084a.6.6,0,0,1,0-1.068c.585-.375,1.179-.734,1.769-1.1.072-.045.143-.092.244-.157-.082-.058-.145-.108-.212-.15C1.556,13.252.971,12.894.39,12.53a.613.613,0,0,1,0-1.138c.644-.4,1.292-.8,1.976-1.228-.26-.163-.489-.307-.719-.45-.408-.253-.817-.5-1.224-.759-.557-.349-.559-.833,0-1.179Q5.648,4.538,10.875,1.3C11.5.915,12.133.533,12.754.136a.732.732,0,0,1,.861,0Q19.8,3.968,25.987,7.8a2.191,2.191,0,0,1,.38.4v.309a3.076,3.076,0,0,1-.457.464c-.557.369-1.132.709-1.7,1.061-.06.037-.114.082-.19.138.651.4,1.276.776,1.883,1.174a3.165,3.165,0,0,1,.462.458v.309a3.9,3.9,0,0,1-.463.458c-.306.218-.637.4-.957.6l-.931.578c.1.068.168.118.239.161.552.343,1.113.675,1.654,1.035a3.075,3.075,0,0,1,.458.463v.309ZM24.613,8.368c-.085-.058-.152-.108-.223-.152q-5.5-3.405-11-6.814a.333.333,0,0,0-.411,0q-5.5,3.413-11,6.814c-.071.044-.138.093-.223.152.093.06.163.107.234.152Q7.463,11.905,12.926,15.3a.423.423,0,0,0,.525,0Q18.911,11.9,24.38,8.52c.072-.044.14-.091.233-.152Zm.01,7.184c-.531-.331-1.038-.634-1.53-.959a.361.361,0,0,0-.457.006Q18.17,17.374,13.7,20.144a.846.846,0,0,1-1.017.008c-1.251-.8-2.517-1.566-3.778-2.347q-2.6-1.61-5.2-3.218c-.077-.047-.211-.1-.268-.065-.557.327-1.1.673-1.677,1.028.093.063.154.108.218.148q5.508,3.411,11.014,6.826a.333.333,0,0,0,.411-.009q5.484-3.4,10.972-6.8c.078-.048.153-.1.251-.164Zm.008-3.591c-.541-.336-1.046-.638-1.537-.962a.36.36,0,0,0-.455,0c-2.985,1.855-5.976,3.7-8.958,5.558a.831.831,0,0,1-.993,0q-4.223-2.633-8.458-5.243c-.239-.148-.486-.4-.728-.4s-.485.257-.726.405c-.332.2-.662.411-1.018.633.1.067.159.112.223.152q5.487,3.4,10.972,6.8a.387.387,0,0,0,.48-.006q3.887-2.418,7.78-4.823L24.63,11.96Z" transform="translate(-0.005 0.006)" fill="#f7f6f5"/>
</svg>
