<svg xmlns="http://www.w3.org/2000/svg" width="10.68" height="10.678" viewBox="0 0 10.68 10.678">
  <path id="Icon_awesome-instagram" data-name="Icon awesome-instagram" d="M5.336,4.839A2.738,2.738,0,1,0,8.073,7.576,2.733,2.733,0,0,0,5.336,4.839Zm0,4.517a1.78,1.78,0,1,1,1.78-1.78,1.783,1.783,0,0,1-1.78,1.78ZM8.824,4.727a.639.639,0,1,1-.639-.639A.637.637,0,0,1,8.824,4.727Zm1.813.648a3.16,3.16,0,0,0-.862-2.237,3.181,3.181,0,0,0-2.237-.862c-.882-.05-3.524-.05-4.405,0a3.176,3.176,0,0,0-2.237.86A3.17,3.17,0,0,0,.032,5.373c-.05.882-.05,3.524,0,4.405a3.16,3.16,0,0,0,.862,2.237,3.185,3.185,0,0,0,2.237.862c.882.05,3.524.05,4.405,0a3.16,3.16,0,0,0,2.237-.862,3.181,3.181,0,0,0,.862-2.237c.05-.882.05-3.521,0-4.4ZM9.5,10.724a1.8,1.8,0,0,1-1.015,1.015,11.767,11.767,0,0,1-3.147.214,11.859,11.859,0,0,1-3.147-.214,1.8,1.8,0,0,1-1.015-1.015A11.768,11.768,0,0,1,.959,7.576a11.859,11.859,0,0,1,.214-3.147A1.8,1.8,0,0,1,2.188,3.414,11.768,11.768,0,0,1,5.336,3.2a11.859,11.859,0,0,1,3.147.214A1.8,1.8,0,0,1,9.5,4.429a11.768,11.768,0,0,1,.214,3.147A11.761,11.761,0,0,1,9.5,10.724Z" transform="translate(0.005 -2.238)" fill="#fff"/>
</svg>
