<svg id="verified_black_24dp" xmlns="http://www.w3.org/2000/svg" width="18" height="18" viewBox="0 0 18 18">
  <g id="Group_1373" data-name="Group 1373">
    <rect id="Rectangle_587" data-name="Rectangle 587" width="18" height="18" fill="none"/>
    <rect id="Rectangle_588" data-name="Rectangle 588" width="18" height="18" fill="none"/>
  </g>
  <g id="Group_1374" data-name="Group 1374" transform="translate(1 1.5)">
    <path id="Path_2499" data-name="Path 2499" d="M17,9,15.225,7.007l.247-2.636-2.625-.586L11.473,1.5,9,2.543,6.527,1.5,5.153,3.779l-2.625.579L2.775,7,1,9l1.775,1.993-.247,2.643,2.625.586L6.527,16.5,9,15.45l2.473,1.043,1.375-2.279,2.625-.586-.247-2.636ZM7.095,11.864,5.364,10.15a.7.7,0,0,1,0-1.007l.051-.05a.743.743,0,0,1,1.033,0L7.618,10.25l3.745-3.686a.743.743,0,0,1,1.033,0l.051.05a.7.7,0,0,1,0,1.007L8.142,11.864A.761.761,0,0,1,7.095,11.864Z" transform="translate(-1 -1.5)" fill="#00e096"/>
  </g>
</svg>
